<?xml version="1.0" encoding="utf-8"?>
<!-- Generator: Adobe Illustrator 15.1.0, SVG Export Plug-In . SVG Version: 6.00 Build 0)  -->
<!DOCTYPE svg PUBLIC "-//W3C//DTD SVG 1.1//EN" "http://www.w3.org/Graphics/SVG/1.1/DTD/svg11.dtd">
<svg version="1.1" id="Layer_1" xmlns="http://www.w3.org/2000/svg" xmlns:xlink="http://www.w3.org/1999/xlink" x="0px" y="0px"
	 width="200px" height="26px" viewBox="0 0 200 26" enable-background="new 0 0 200 26" xml:space="preserve">
<g>
	<path fill="#FFFFFF" d="M1,12.991c0-1.132,0-2.265,0-3.397C1.488,8.085,3.452,8.05,4.096,6.698l0.05,0.149l0.15-0.049
		c0.418,1.293-0.574,2.016-0.499,3.295C4.17,9.497,4.154,9.071,4.596,8.596C5.77,7.335,8.605,7.436,8.192,5.2l0.184,0.05L8.492,5.1
		c2.371,1.857-0.198,4.587-0.7,6.493c0.687-1.977,2.989-2.338,2.897-5.095c0.805,0.693,1.193,1.805,1.298,3.197
		c0.566-0.966,1.456-1.607,2.197-2.398l0.051,0.15l0.15,0.05c0,1.864,0,3.729,0,5.594C9.957,13.025,5.263,13.224,1,12.991z"/>
	<path fill="#FFFFFF" d="M97.895,19.984c-0.437,0.463-1.258,0.098-1.899,0.098c-0.708,0-1.424,0.279-1.998,0
		c-0.029-0.593,0.999-0.132,1.2-0.498c0.339-1.32,0.199-3.4,0.199-5.494c0-1.959,0.379-4.359-0.1-5.494
		c-0.242-0.573-0.908-0.538-1.1-0.999c0.777-0.324,1.596-0.604,2.398-0.899c0.171,3.868-0.202,8.586,0.1,12.586
		C96.771,19.841,97.686,19.559,97.895,19.984z"/>
	<path fill="#FFFFFF" d="M101.49,19.284c0.111,0.522,0.979,0.286,1.197,0.7c-0.168,0.367-0.736,0.207-0.998,0.199
		c-0.748-0.025-1.78-0.021-2.796-0.103c0.014-0.583,1.044-0.153,1.199-0.597c0.177-2.145,0.099-5.508,0.1-8.193
		c0-0.952,0.194-2.139,0-2.696c-0.198-0.569-1.007-0.515-1.199-0.999c0.772-0.328,1.629-0.569,2.397-0.899
		C101.624,10.694,101.425,15.122,101.49,19.284z"/>
	<path fill="#FFFFFF" d="M148.837,14.559c2.474-2.6,5.005-3.379,4.599,0.131c-0.287,2.457-3.806,5.293-5.896,5.692
		c-0.92,0.179-1.758-0.016-2.197-0.696c0.675-2.998,1.943-6.748,2.798-10.189c0.238-0.961,0.586-1.547-0.199-1.897
		c-0.213-0.095-0.541,0.021-0.6-0.3c0.684-0.448,1.885-0.379,2.797-0.599c-0.896,3.232-1.902,6.355-2.896,9.489
		c0.08-0.054,0.162-0.104,0.298-0.101l0.122,0.136l0.072,0.166c-0.443,0.971-1.34,1.661-1.092,2.994
		c1.543,0.87,2.974-0.693,3.795-1.697c0.86-1.052,1.99-2.695,1.498-4.195c-1.197-0.632-3.47,2.429-4.201,2.898l-0.194-0.302
		L148.837,14.559z"/>
	<path fill="#FFFFFF" d="M156.532,19.186c1.065,0.059,1.163-1.354,1.995-1.199c-0.034,0.433-0.855,1.396-1.397,1.798
		c-0.649,0.481-1.644,0.967-2.296,0.299c0.455-3.231,1.949-6.912,2.798-10.287c0.312-1.241,0.524-2.002-0.7-2.298
		c0.432-0.668,1.824-0.373,2.495-0.799c0.116-0.016,0.179,0.021,0.201,0.1c-0.862,3.569-2.354,7.266-3.196,10.887
		C156.33,18.117,155.943,18.824,156.532,19.186z"/>
	<path fill="#FFFFFF" d="M174.911,6.698c0.067,0,0.135,0,0.2,0c-0.752,3.511-1.942,6.583-2.897,9.89
		c1.576-1.501,2.354-4.292,5.396-3.996c1.629,1.438-0.146,5.571-1.602,6.992c-0.541,0.532-1.882,1.326-2.496,0.4
		c-0.009-0.311,0.121-0.479,0.2-0.7c0.421-0.298,0.894,0.065,1.3,0.1c1.334-1.047,2.193-3.571,1.698-5.793
		c-0.118,0.017-0.179-0.021-0.199-0.1c-1.321-0.044-2.134,1.132-2.799,1.999c-0.646,0.842-1.409,1.837-1.897,2.796
		c-0.348,0.681-0.381,1.581-0.998,2.097c-0.307,0.073-0.363-0.101-0.599-0.098c0.152-1.695,0.968-3.628,1.696-5.896
		c0.293-0.912,0.5-1.891,0.8-3.096c0.304-1.224,1.571-3.683-0.301-3.795C172.873,6.858,174.213,7.098,174.911,6.698z"/>
	<path fill="#FFFFFF" d="M106.086,9.196c-1.473,0.219-1.713-0.819-1.299-1.499C105.548,6.449,107.52,8.365,106.086,9.196z"/>
	<path fill="#FFFFFF" d="M82.511,8.696c0.045,0.82,0.358,1.906,0.2,2.596c-0.591-0.13-0.534-0.729-0.699-1
		c-0.548-0.893-1.843-1.788-3.196-1.897c-3.746-0.3-5.779,3.003-5.594,6.192c0.166,2.843,2.465,5.588,5.993,5.195
		c0.561-0.062,1.827-0.302,2.498-0.999c0.474-0.492,0.388-1.274,0.998-1.799c0.679,0.361-0.171,1.801-0.1,2.599
		c-3.199,1.615-7.504,0.726-9.489-1.2c-2.28-2.211-2.288-6.181-0.2-8.389C75.068,7.724,79.129,7.133,82.511,8.696z"/>
	<path fill="#FFFFFF" d="M162.623,9.096c-0.63-1.39,1.223-1.714,1.398-0.7C164.141,9.062,163.395,9.63,162.623,9.096z"/>
	<path fill="#FFFFFF" d="M22.276,8.296c-0.177,0.623-1.532,0.065-1.798,0.599c-0.222,1.276-0.042,2.955-0.101,4.396
		c2.232,0.232,4.897,0.033,7.294,0.1c0.115-1.248,0.278-3.408-0.101-4.495c-0.174-0.492-1.324-0.007-1.398-0.599
		c0.089-0.56,0.885-0.22,1.398-0.2c0.667,0.027,1.419,0.015,2.098,0c0.608-0.014,1.275-0.192,1.499,0.099
		c-0.035,0.799-1.554,0.113-1.698,0.801c-0.174,1.236-0.101,3.104-0.101,5.194c0,1.648-0.397,4.316,0.2,5.094
		c0.422,0.548,1.149,0.135,1.499,0.601c-0.005,0.527-0.736,0.284-1.098,0.3c-0.425,0.018-0.948,0-1.399,0
		c-0.929,0-2.056,0.152-2.597-0.199c0.202-0.598,1.425-0.174,1.698-0.7c0.225-1.538,0.039-3.49,0.1-5.194c-2.464,0-4.929,0-7.394,0
		c0.065,1.669-0.128,3.594,0.101,5.096c0.198,0.566,1.149,0.381,1.699,0.599c0.086,0.603-0.693,0.377-1.099,0.399
		c-0.897,0.053-1.814,0.021-2.797,0c-0.42-0.009-1.021,0.174-1.198-0.199c0.027-0.603,1.326-0.145,1.597-0.699
		c0.176-1.26,0.101-3.126,0.101-5.094c0-1.75,0.362-4.05-0.101-4.995c-0.348-0.711-1.134-0.402-1.597-0.8c0-0.067,0-0.134,0-0.201
		c-0.017-0.115,0.021-0.177,0.1-0.198c0.815,0.012,2.143,0.146,3.195,0.099C21.072,8.066,21.908,7.682,22.276,8.296z"/>
	<path fill="#FFFFFF" d="M129.66,14.389c0.117-0.494,0.872,0.123,1.597,0c2.55-0.425,3.513-6.508-0.797-5.692
		c-0.635,0.669-0.642,1.679-0.901,2.596c-0.703,2.512-1.623,5.514-2.097,8.091c0.132,0.468,1.054,0.148,1.399,0.399
		c-0.057,0.754-1.057,0.324-1.6,0.299c-0.986-0.044-2.113,0.158-2.796,0c-0.141-0.671,0.81-0.254,1.099-0.498
		c0.752-0.561,0.765-1.621,1-2.497c0.687-2.58,1.682-5.473,1.996-8.091c-0.18-0.607-0.988-0.19-1.398-0.4
		c0.044-0.652,0.783-0.353,1.199-0.401c2.816-0.321,6.119-0.276,6.593,1.998c0.423,2.034-1.131,4.426-3.097,4.696
		C131.268,14.971,130.122,15.012,129.66,14.389z"/>
	<path fill="#FFFFFF" d="M49.148,12.392c0,0.4,0,0.799,0,1.199c1.479-1.181,3.854-1.506,5.094,0.101
		c2.481,3.218-1.098,7.678-4.995,6.594c-0.192,1.002-0.125,2.581,0,3.596c0.183,0.582,1.42,0.111,1.598,0.698
		c-0.411,0.442-1.237,0.146-1.898,0.101c-0.799-0.055-1.987,0.338-2.596-0.101c0.03-0.568,1.059-0.138,1.298-0.499
		c0.35-1.737,0.199-4.828,0.199-7.191c0-0.863,0.156-1.925,0-2.396c-0.193-0.585-0.922-0.553-1.098-1
		C47.571,13.146,48.217,12.626,49.148,12.392z M49.348,19.186c0.719,1.024,2.928,0.481,3.596-0.301
		c2.013-2.355-0.726-7.187-3.796-4.693C49.511,15.836,48.577,18.086,49.348,19.186z"/>
	<path fill="#FFFFFF" d="M36.331,18.954c-1.272,2.019-4.132,1.815-3.765-0.771c0.879-1.117,2.53-1.463,3.995-1.996
		c0.572-2.179-1.009-3.203-2.597-2.297c0.12,0.795-0.528,1.303-1.198,1.199c-0.301-1.044,1.709-2.119,2.697-2.598
		c0.968-0.469,2.215,0.756,2.297,1.398c0.105,0.812,0,1.994,0,2.998c0,0.941-0.208,2.03,0.499,2.495
		c0.517,0.019,0.461-0.538,1-0.499c0.24,1.816-2.743,2.211-2.597,0.199c-0.067,0-0.134,0-0.201,0L36.331,18.954l-0.169-0.069
		c0.54-0.261,0.483-1.646,0.3-2.297c-0.743,0.592-1.978,0.686-2.497,1.498c-0.139,1.314,1.035,1.893,1.897,1.1l0.5-0.486
		L36.331,18.954z"/>
	<path fill="#FFFFFF" d="M43.054,14.588c-0.694,0.877-0.461,3.616-0.199,4.796c0.194,0.404,1.029,0.169,1.198,0.601
		c-0.069,0.367-0.605,0.189-0.899,0.199c-0.888,0.027-2.271,0.058-3.097-0.102c-0.003-0.682,0.77-0.143,1.099-0.598
		c0.275-0.53,0.2-1.461,0.2-2.397c0-0.874,0.174-1.961,0-2.499c-0.225-0.689-0.935-0.525-1-0.998
		c0.542-0.524,1.399-0.732,2.099-1.098c0.066,0,0.133,0,0.199,0c0.066,0.6-0.131,1.463,0.1,1.896l0.13,0.131L43.054,14.588z"/>
	<path fill="#FFFFFF" d="M42.884,14.52l0.17-0.528c0.448-0.833,1.708-2.059,2.897-1.199c0.267,0.54,0.019,1.142-0.4,1.298
		c-0.82-0.172-1.903-0.125-2.497,0.498L42.884,14.52z"/>
	<path fill="#FFFFFF" d="M63.032,15.59c-1.632,0-3.262,0-4.895,0c-0.46,2.205,1.249,4.073,3.096,3.694
		c0.76-0.156,0.927-0.673,1.7-0.9c0.07,0.575-0.539,1.183-1,1.501c-2.643,1.817-5.351-0.795-5.193-3.396
		c0.155-2.569,2.223-4.354,4.295-3.996C62.171,12.688,63.179,13.758,63.032,15.59z M58.237,15.188
		c1.126-0.006,2.326,0.063,3.197-0.199C62.278,12.3,58.1,12.664,58.237,15.188z"/>
	<path fill="#FFFFFF" d="M67.029,14.689c-0.309,0.261-0.552,3.791-0.2,4.496c0.332,0.66,0.923,0.34,1.397,0.799
		c-0.207,0.4-1.169,0.199-1.997,0.199c-0.831,0-1.764,0.114-2.097-0.103c0.053-0.577,1.037-0.226,1.198-0.698
		c0.224-1.474,0.039-3.357,0.1-4.994c-0.117-0.449-0.827-0.304-0.999-0.699c0.492-0.672,1.473-0.856,2.298-1.197
		c0.215,0.482-0.125,1.182,0,1.896c0.067,0,0.132,0,0.199,0l-0.05,0.185L67.029,14.689z"/>
	<path fill="#FFFFFF" d="M66.625,14.573l0.503-0.483c0.472-0.884,1.518-2.064,2.897-1.399c0.278,0.533,0.22,1.18-0.301,1.399
		c-0.934-0.219-2.207-0.226-2.696,0.6L66.625,14.573z"/>
	<path fill="#FFFFFF" d="M88.204,12.592c2.106-0.326,3.924,0.865,4.396,2.596c0.841,3.086-1.736,5.351-4.196,5.295
		c-2.403-0.053-4.873-2.659-3.296-5.793C85.477,13.958,86.448,12.862,88.204,12.592z M90.103,13.491
		c-0.625-0.495-1.88-0.776-2.797-0.2c-1.883,1.184-1.281,6.085,0.898,6.594C91.785,20.777,91.991,14.982,90.103,13.491z"/>
	<path fill="#FFFFFF" d="M106.387,19.384c0.055,0.447,1.258,0.271,1.098,0.601c-0.402,0.463-1.147,0.101-1.797,0.099
		c-0.67,0-1.43,0.271-1.998,0c-0.004-0.565,0.957-0.17,1.199-0.498c-0.16-1.075,0.529-3.962,0.1-5.194
		c-0.236-0.673-0.916-0.392-1.1-0.999c0.717-0.348,1.536-0.594,2.297-0.898C106.482,14.557,106.088,17.318,106.387,19.384z"/>
	<path fill="#FFFFFF" d="M111.48,14.09c-0.099,0.135-0.269,0.199-0.399,0.299c0.063,1.604-0.131,3.461,0.101,4.896
		c0.072,0.557,0.988,0.273,1.196,0.699c-0.162,0.369-0.68,0.207-0.997,0.199c-0.701-0.019-1.829,0.002-2.898-0.102
		c-0.027-0.593,1.002-0.132,1.201-0.498c0.297-0.512,0.198-1.535,0.198-2.6c0-0.926,0.191-2.198,0-2.695
		c-0.212-0.55-0.661-0.416-0.998-0.699c0.442-0.624,1.513-0.618,2.097-1.098c0.23,0.236,0.037,0.896,0.102,1.299
		c0.102,0,0.197,0,0.3,0l-0.051,0.184L111.48,14.09z"/>
	<path fill="#FFFFFF" d="M111.062,13.975l0.715-0.483c1.173-1.044,3.865-1.568,4.297,0.399c0.369,1.672-0.352,3.642,0.1,5.493
		c0.104,0.499,1.002,0.197,1.2,0.601c-0.377,0.463-1.161,0.101-1.799,0.099c-0.702,0-1.558,0.351-1.999-0.099
		c0.168-0.399,1.027-0.105,1.199-0.498c0.162-2.629,0.689-7.484-3.295-5.396L111.062,13.975z"/>
	<path fill="#FFFFFF" d="M123.366,12.991c-0.06,0.536-0.038,1.159-0.199,1.597c-0.746-0.271-0.632-1.434-1.599-1.597
		c-0.91-0.153-1.721,0.383-1.697,1.2c0.039,1.434,2.964,1.574,3.495,3.096c0.933,2.667-2.505,3.992-4.794,2.599
		c-0.033-0.427-0.336-1.559,0.101-1.799c0.552,0.138,0.397,0.708,0.699,1.101c0.623,0.809,2.914,1.136,2.896-0.6
		c-0.018-1.559-2.979-1.708-3.494-3.299C117.984,12.881,121.129,11.769,123.366,12.991z"/>
	<path fill="#FFFFFF" d="M136.553,13.99c0.629-0.622,1.256-1.717,2.499-1.398c0.138,1.125-0.514,2.092-0.899,3.096
		c-0.373,0.961-0.957,1.946-0.899,2.996c1.213-0.158,1.802-1.39,2.498-2.195c0.728-0.844,1.577-1.619,2.197-2.498
		c0.358-0.509,0.428-1.48,1.299-1.498c0.397,1.085-0.425,2.17-0.799,3.195c-0.399,1.104-0.888,2.187-0.9,3.297
		c0.409,0.242,0.526-0.139,0.9-0.2l1.147-1.146l-0.85,1.346c-0.576,0.662-1.331,1.547-2.398,1.397
		c-0.404-1.708,0.93-3.305,1.301-4.894c-0.856,0.687-1.689,1.691-2.596,2.598c-0.875,0.873-1.664,2.117-3.098,2.296
		c-0.516-1.188,0.312-2.309,0.697-3.295c0.416-1.062,0.968-2.067,1-3.097c-0.312-0.281-0.467,0.199-0.801,0.199l-0.129-0.129
		L136.553,13.99z"/>
	<path fill="#FFFFFF" d="M162.725,18.984c-0.586,0.822-1.646,1.738-2.896,1.3c-0.471-2.015,1.913-4.403,1.699-6.595
		c-0.828-0.271-1.012,0.979-1.398,0.5c-0.396-0.226,0.316-0.586,0.698-0.898c0.635-0.519,1.28-1.18,2.196-0.5
		c-0.146,2.518-1.713,4.143-1.896,6.292c0.483,0.533,1.078-0.147,1.397-0.399l0.498-0.408L162.725,18.984z"/>
	<path fill="#FFFFFF" d="M168.918,13.99c-0.911-0.072-0.693-0.863-1.499-0.899c-0.511-0.023-1.178,0.476-1.198,1.099
		c-0.043,1.338,2.118,1.809,2.297,3.396c0.219,1.93-2.434,3.568-4.195,2.496c-0.188-0.416-0.133-1.105,0.201-1.298
		c0.668-0.041,0.901,0.674,1.597,0.7c0.646,0.023,1.251-0.326,1.3-1c0.094-1.232-1.91-1.898-2.097-3.196
		c-0.193-1.353,1.024-2.773,2.495-2.796C168.407,12.482,169.811,12.664,168.918,13.99z"/>
	<path fill="#FFFFFF" d="M184.001,12.592c0.979-0.232,2.194,0.118,2.397,0.798c0.541,1.815-1.733,2.676-3.195,2.896l-1.784,0.229
		l1.685-0.529c1.431-0.424,3.27-2.698,0.849-3.024l0.001-0.189L184.001,12.592z"/>
	<path fill="#FFFFFF" d="M181.652,16.337l0.05,0.151c-0.687,1.389-0.168,3.322,1.8,2.996c0.727-0.123,1.127-0.823,1.698-0.897
		c-0.029,1.31-2.495,2.25-3.896,1.697c-0.746-0.298-1.187-1.392-1.199-2.397c-0.031-2.589,1.701-4.906,3.896-5.294l-0.049,0.182
		l0.149,0.117c-1.338,0.563-1.953,1.842-2.399,3.295L181.652,16.337z"/>
	<path fill="#FFFFFF" d="M187.896,14.09c0.36-0.69,0.817-1.601,1.599-1.598c1.339,0.004,1.103,2.089,0.7,3.296
		c0.969-0.582,1.479-3.35,2.996-3.296c1.606,0.056,0.562,2.49-0.699,1.197c-1.034,0.715-1.52,2.002-2.098,3.197
		c-0.599,1.23-0.791,2.666-1.699,3.596c-0.187-0.08-0.364-0.168-0.6-0.198c0.004-0.89,0.574-1.795,0.9-2.798
		c0.415-1.283,1.1-3.137,0-3.695c-0.475,0.025-0.562,0.436-0.9,0.598l-0.068-0.168L187.896,14.09z"/>
	<path fill="#FFFFFF" d="M199.186,13.091c0,0.133,0,0.267,0,0.399c-0.172,0.128-0.199,0.398-0.399,0.5
		c-0.935-0.096-0.638-0.871-1.498-0.899c-0.548-0.018-1.185,0.562-1.199,1.099c-0.014,0.487,0.646,1.184,1.101,1.699
		c0.443,0.502,1.117,0.936,1.197,1.696c0.207,1.914-2.181,3.403-4.097,2.599c-0.151-0.326-0.417-1.16,0.103-1.3
		c0.623-0.223,0.979,0.605,1.696,0.601c0.57-0.004,1.147-0.256,1.199-1c0.09-1.307-1.942-1.898-2.099-3.297
		C194.98,13.301,197.85,11.559,199.186,13.091z"/>
	<path fill="#FFFFFF" d="M3.097,14.289c0.103,2.203,2.53,0.68,3.096-0.1l0.051,0.149l0.15-0.051
		c0.188,1.583,2.147,0.604,2.497-0.199c0.204,1.851,2.552,0.882,2.997-0.1c0.113,1.385,1.934,1.006,2.498,0.397
		c0,1.932,0,3.864,0,5.795c-4.429,0-8.858,0-13.286,0c0-1.863,0-3.729,0-5.596c0.711,0.229,1.325-0.189,1.799-0.498l0.049,0.148
		L3.097,14.289z"/>
	<g>
		<path fill="#FFFFFF" d="M4.146,6.647c0.038,0.047,0.025-0.256,0.01-0.18"/>
		<path fill="#FFFFFF" d="M8.243,5c0.044,0.053,0.092,0.162,0.133,0.25"/>
		<path fill="#FFFFFF" d="M14.236,7.447c0.032-0.084,0.061-0.138,0.1-0.2"/>
		<path fill="#FFFFFF" d="M147.662,16.225c0.421-0.658-0.396,0.506,0.178-0.037"/>
		<path fill="#FFFFFF" d="M36.331,18.954C36.434,18.826,36.229,19.084,36.331,18.954"/>
		<path fill="#FFFFFF" d="M42.884,14.52c0.123-0.145,0.216-0.313,0.34-0.459"/>
		<path fill="#FFFFFF" d="M66.878,14.573c0.175-0.06,0.231-0.259,0.379-0.353"/>
		<path fill="#FFFFFF" d="M111.33,13.975c0.222-0.113,0.404-0.291,0.619-0.414"/>
		<path fill="#FFFFFF" d="M142.576,18.914c0.357-0.41,0.727-0.816,1.02-1.275"/>
		<path fill="#FFFFFF" d="M136.581,14.221c0.049-0.055,0.096-0.104,0.144-0.16"/>
		<path fill="#FFFFFF" d="M6.244,14.34c0.045-0.104,0.081-0.186,0.1-0.3"/>
		<path fill="#FFFFFF" d="M2.948,14.239c0.122-0.072,0.138-0.132,0.201-0.199"/>
	</g>
</g>
</svg>
